HIERARCHY
ROOT Hips
{
	OFFSET -0.179506 -22.333345 2.821913
	CHANNELS 6 Xposition Yposition Zposition Zrotation Yrotation Xrotation 
	JOINT LeftUpLeg
	{
		OFFSET 6.951974 -9.140623 -0.681533
		CHANNELS 3 Zrotation Yrotation Xrotation
		JOINT LeftLeg
		{
			OFFSET 3.427654 -37.519855 -0.449580
			CHANNELS 3 Zrotation Yrotation Xrotation
			JOINT LeftFoot
			{
				OFFSET -1.359570 -39.796059 -4.369333
				CHANNELS 3 Zrotation Yrotation Xrotation
				JOINT LeftToe
				{
					OFFSET 2.635814 -5.579078 11.928840
					CHANNELS 3 Zrotation Yrotation Xrotation
					End Site
					{
						OFFSET 0.000000 0.000000 0.000000
					}
				}
			}
		}
	}
	JOINT RightUpLeg
	{
		OFFSET -6.767048 -9.052170 -0.431982
		CHANNELS 3 Zrotation Yrotation Xrotation
		JOINT RightLeg
		{
			OFFSET -3.829005 -38.256897 -0.885003
			CHANNELS 3 Zrotation Yrotation Xrotation
			JOINT RightFoot
			{
				OFFSET 1.577377 -39.841461 -4.231180
				CHANNELS 3 Zrotation Yrotation Xrotation
				JOINT RightToe
				{
					OFFSET -2.537174 -4.814398 12.334795
					CHANNELS 3 Zrotation Yrotation Xrotation
					End Site
					{
						OFFSET 0.000000 0.000000 0.000000
					}
				}
			}
		}
	}
	JOINT Spine
	{
		OFFSET -0.253288 10.896323 -2.669631
		CHANNELS 3 Zrotation Yrotation Xrotation
		JOINT Spine1
		{
			OFFSET 0.548704 13.518043 0.109247
			CHANNELS 3 Zrotation Yrotation Xrotation
			JOINT Spine2
			{
				OFFSET 0.145701 5.292222 2.542457
				CHANNELS 3 Zrotation Yrotation Xrotation
				JOINT Neck
				{
					OFFSET -0.277840 21.387037 -4.285703
					CHANNELS 3 Zrotation Yrotation Xrotation
					JOINT Head
					{
						OFFSET 0.515184 6.496960 5.134897
						CHANNELS 3 Zrotation Yrotation Xrotation
						End Site
						{
							OFFSET 0.000000 0.000000 0.000000
						}
					}
				}
				JOINT LeftShoulder
				{
					OFFSET 7.884473 12.174932 -3.408961
					CHANNELS 3 Zrotation Yrotation Xrotation
					JOINT LeftArm
					{
						OFFSET 9.097692 3.046888 -0.886815
						CHANNELS 3 Zrotation Yrotation Xrotation
						JOINT LeftForeArm
						{
							OFFSET 25.961220 -1.277207 -2.745643
							CHANNELS 3 Zrotation Yrotation Xrotation
							JOINT LeftHand
							{
								OFFSET 24.923361 0.898606 -0.117091
								CHANNELS 3 Zrotation Yrotation Xrotation
								End Site
								{
									OFFSET 0.000000 0.000000 0.000000
								}
							}
						}
					}
				}
				JOINT RightShoulder
				{
					OFFSET -8.175920 11.883285 -3.861528
					CHANNELS 3 Zrotation Yrotation Xrotation
					JOINT RightArm
					{
						OFFSET -9.601238 3.255117 -0.914307
						CHANNELS 3 Zrotation Yrotation Xrotation
						JOINT RightForeArm
						{
							OFFSET -25.374195 -1.332924 -2.140099
							CHANNELS 3 Zrotation Yrotation Xrotation
							JOINT RightHand
							{
								OFFSET -25.529810 0.777228 -0.555919
								CHANNELS 3 Zrotation Yrotation Xrotation
								End Site
								{
									OFFSET 0.000000 0.000000 0.000000
								}
							}
						}
					}
				}
			}
		}
	}
}
MOTION
Frames: 15
Frame Time: 0.033333
65.769745 6.788312 93.348877 -116.426734 3.181240 90.505132 5.674693 5.968039 -15.874329 -8.270461 0.168455 30.771585 -0.582010 8.243612 -16.063938 nan nan nan -12.391884 -5.028674 -29.818005 3.470301 -1.852477 39.545033 5.650696 -1.646792 -0.246020 nan nan nan 0.946767 -2.072175 17.330633 5.434655 -1.918294 -2.016840 1.271418 -1.895490 2.482346 1.247197 11.183336 17.257680 0.391492 10.250955 5.571425 -11.293509 10.688368 0.971094 -60.137930 -8.202079 11.892025 6.516232 -31.196323 -12.454236 -1.546014 -22.319227 -26.466724 11.562256 -14.204375 -0.681945 54.043384 1.097027 0.669558 -5.016252 39.260592 -8.537178 4.223591 16.658997 -18.967378 
65.389030 6.400485 93.563042 -116.223027 3.179085 90.542452 5.160846 5.508425 -15.344707 -8.054415 0.065664 29.847889 -0.407482 8.593867 -15.796097 nan nan nan -11.480189 -4.365414 -30.551888 3.850742 -1.914513 39.618698 5.558436 -1.493924 0.193191 nan nan nan 0.915696 -2.399010 17.364704 5.433639 -2.044127 -1.924581 1.279321 -1.952309 2.436714 0.982851 11.030491 17.386966 0.446840 10.509583 5.577352 -11.306344 10.588805 0.897635 -60.209622 -8.263607 11.955073 6.868278 -31.698318 -12.603954 -0.418779 -22.377404 -26.096927 11.290066 -14.406073 -0.797369 54.220437 0.744761 0.902334 -4.691675 39.110713 -8.026775 3.705023 16.873038 -19.125128 
65.017967 6.031037 93.759811 -116.166933 3.174916 90.673568 4.712433 5.280512 -14.898302 -7.847446 0.102579 28.963217 -0.356044 8.715774 -15.693896 nan nan nan -10.469410 -3.583854 -31.479725 4.102984 -1.798960 39.721056 5.645792 -1.302249 0.564826 nan nan nan 0.899175 -2.780013 17.343085 5.383872 -2.100864 -1.874497 1.217554 -1.945592 2.322815 0.844436 11.218414 17.533390 0.552388 10.607954 5.529547 -11.343397 10.598432 0.782020 -60.175023 -8.339440 11.981531 7.112665 -32.060461 -12.950136 -0.722338 -22.931755 -26.127870 11.099800 -14.545939 -0.745704 54.513865 0.455739 1.130870 -4.824273 38.872136 -7.819037 3.584736 16.933504 -19.278364 
64.636902 5.656762 93.950722 -116.076812 3.119765 90.789917 4.167705 5.062182 -14.432960 -7.633869 0.040176 28.087379 -0.279753 8.937423 -15.555934 nan nan nan -9.541151 -2.860247 -32.334501 4.382296 -1.622959 39.733683 5.671722 -1.255292 0.910760 nan nan nan 0.883062 -3.097196 17.251292 5.346491 -2.216245 -1.652966 1.124906 -2.010694 2.110813 0.704705 11.384155 17.614981 0.702234 10.739605 5.539309 -11.427460 10.592500 0.789102 -60.065592 -8.497818 11.878929 7.195281 -32.572376 -13.575907 -2.043404 -23.331308 -26.348543 10.940702 -14.651883 -0.543864 54.869307 0.242290 1.198545 -5.155373 38.747626 -8.084861 3.764787 16.719795 -19.100156 
64.250816 5.280622 94.124695 -115.873228 3.029763 90.910451 3.590821 4.738747 -14.017280 -7.460698 -0.071562 27.286897 -0.240902 9.131205 -15.417101 nan nan nan -8.727800 -2.186862 -33.087776 4.693098 -1.645897 39.662547 5.542233 -1.329777 1.482985 nan nan nan 0.804409 -3.398343 17.168836 5.339560 -2.362829 -1.549489 1.092478 -2.129087 2.041409 0.460996 11.455973 17.672032 0.887370 10.899432 5.490191 -11.500935 10.566101 0.810129 -59.982689 -8.754231 11.816435 7.220413 -33.067742 -14.132836 -2.615246 -23.603359 -26.199355 10.771569 -14.877356 -0.543823 55.135604 0.001563 1.226510 -5.134891 38.571181 -8.234513 3.922651 16.753674 -18.849121 
63.876019 4.905637 94.277580 -115.674984 2.874846 91.007329 2.983225 4.410689 -13.549156 -7.317220 -0.072219 26.443181 -0.169267 9.286674 -15.241487 nan nan nan -7.977625 -1.450932 -33.823039 4.900809 -1.687518 39.614774 5.674612 -1.344467 1.949817 nan nan nan 0.657461 -3.735277 17.095224 5.317171 -2.521877 -1.374854 1.059068 -2.286689 1.930362 0.230079 11.531060 17.668023 1.031410 11.107909 5.578242 -11.506437 10.544970 0.786186 -59.972079 -8.864045 11.872428 7.485042 -33.709136 -14.833362 -2.957625 -23.948475 -26.188850 10.572246 -15.055590 -0.561272 55.413737 -0.189235 1.465098 -5.224221 38.358543 -8.458701 3.877178 16.927955 -19.043117 
63.523304 4.529929 94.417564 -115.537928 2.737038 91.129337 2.433384 4.172008 -13.090144 -7.265765 -0.106210 25.568016 -0.093156 9.409021 -15.103096 nan nan nan -7.230094 -0.668541 -34.593749 5.100491 -1.660764 39.510737 6.061688 -1.209645 2.194444 nan nan nan 0.559112 -4.060307 17.064936 5.253011 -2.641710 -1.259211 0.984798 -2.463676 1.828692 -0.007515 11.636665 17.633435 1.187138 11.378546 5.563572 -11.459533 10.488625 0.780677 -59.983641 -8.881407 11.941763 7.997632 -34.426220 -15.606460 -3.680387 -24.044063 -26.210749 10.380522 -15.193821 -0.472622 55.726775 -0.273352 1.712389 -5.340738 38.072532 -8.554724 4.087091 16.859503 -19.557137 
63.160732 4.156441 94.530602 -115.332204 2.637014 91.271966 1.908901 3.886891 -12.726202 -7.193522 -0.242691 24.774955 0.052864 9.522440 -14.856211 nan nan nan -6.496827 0.075011 -35.313337 5.303651 -1.763898 39.341158 6.318742 -1.195206 2.317683 nan nan nan 0.524496 -4.376118 17.045229 5.178439 -2.766403 -1.256116 0.931471 -2.631390 1.800224 -0.280658 11.673409 17.585779 1.413862 11.630021 5.558914 -11.441863 10.287007 0.830885 -60.021788 -8.916733 11.922893 8.708725 -35.073747 -16.093873 -3.917633 -23.998375 -25.835981 10.174751 -15.377777 -0.499314 56.048302 -0.589809 1.866436 -5.443169 37.959035 -8.209823 4.334801 16.619308 -19.620027 
62.779278 3.810569 94.611206 -115.018029 2.555071 91.399865 1.424237 3.612792 -12.414887 -7.086170 -0.431969 24.089148 0.289485 9.571957 -14.502809 nan nan nan -5.710222 0.746391 -35.938006 5.609908 -1.776586 39.096969 6.390282 -1.288923 2.491502 nan nan nan 0.469396 -4.725092 16.942787 5.168755 -2.950076 -1.149685 0.895353 -2.783317 1.801010 -0.535886 11.603807 17.459899 1.574319 11.891297 5.594058 -11.437598 10.170254 0.799724 -60.003031 -9.085850 11.996411 9.122289 -35.699180 -16.433003 -3.751137 -24.053650 -25.797944 9.939284 -15.673571 -0.669021 56.364962 -1.018038 2.181978 -5.544178 38.022758 -7.750017 4.069637 16.458566 -19.767830 
62.380928 3.458125 94.665138 -114.748920 2.422469 91.495104 0.906708 3.391920 -12.074635 -7.026970 -0.537640 23.491443 0.463765 9.622808 -14.292141 nan nan nan -4.931169 1.354002 -36.523024 5.896192 -1.724611 38.824314 6.336369 -1.289672 2.736536 nan nan nan 0.347767 -5.049685 16.735983 5.178952 -3.160131 -0.826169 0.871554 -2.904819 1.763469 -0.846903 11.520731 17.303680 1.720681 12.022440 5.506415 -11.330099 10.065283 0.817559 -60.134572 -9.269490 12.153256 9.598041 -36.434090 -17.105437 -3.927124 -24.020302 -26.075681 9.694825 -15.909773 -0.686703 56.704489 -1.332267 2.453451 -5.753990 38.108656 -7.732557 3.823790 16.284090 -20.116496 
61.997276 3.095876 94.698845 -114.504708 2.268239 91.634933 0.386619 3.169182 -11.795234 -7.081198 -0.691489 22.936872 0.542240 9.798991 -14.348999 nan nan nan -4.193579 1.931923 -37.119648 6.158132 -1.631182 38.481890 6.302400 -1.374275 2.959063 nan nan nan 0.276875 -5.343351 16.668568 5.122981 -3.336326 -0.876156 0.828560 -3.034286 1.833217 -1.125028 11.467896 17.164144 1.936376 12.182336 5.550810 -11.272499 9.903804 0.832295 -60.186425 -9.420362 12.162013 10.004223 -37.072935 -17.590089 -3.888523 -24.052603 -26.189298 9.474990 -16.134809 -0.707505 56.994199 -1.712926 2.535143 -5.625706 38.155109 -7.528441 3.459234 16.141632 -20.356603 
61.604057 2.746368 94.728493 -114.230101 2.133164 91.691165 -0.112148 3.045401 -11.447316 -7.094429 -0.862302 22.439479 0.632118 9.893381 -14.393657 nan nan nan -3.416225 2.556656 -37.510405 6.335579 -1.516176 38.021884 6.237700 -1.613960 3.075222 nan nan nan 0.204780 -5.664890 16.708251 5.059943 -3.532499 -0.911757 0.801581 -3.213870 1.844197 -1.322780 11.559655 17.103271 2.043301 12.428737 5.559538 -11.264059 9.811061 0.726898 -60.173311 -9.493925 12.172319 10.456468 -37.617755 -17.861474 -3.583939 -24.077179 -25.826985 9.293485 -16.355705 -0.800500 57.227150 -2.046794 2.662587 -5.409511 37.989100 -7.381962 2.962446 16.185575 -20.943830 
61.192482 2.412002 94.732597 -113.823447 1.937653 91.802799 -0.638401 2.936336 -11.192203 -7.167485 -1.052312 22.014505 0.791852 9.778478 -14.240330 nan nan nan -2.754326 3.054611 -37.881227 6.517794 -1.592761 37.502609 6.001376 -1.800631 3.183880 nan nan nan 0.094602 -6.012553 16.582038 5.015221 -3.794431 -0.798517 0.776791 -3.441349 1.799755 -1.543164 11.567305 16.981391 2.145732 12.656459 5.567056 -11.323898 9.706522 0.663725 -60.051254 -9.609816 12.183096 10.960418 -38.142503 -18.287200 -3.817274 -24.086835 -25.401702 9.162948 -16.512991 -0.880488 57.391402 -2.396982 2.801472 -5.506905 37.834137 -7.635215 3.020684 16.235547 -21.456844 
60.763065 2.072913 94.708878 -113.356003 1.673376 91.966296 -1.278884 2.795328 -10.952363 -7.188328 -1.315794 21.533747 0.999206 9.574987 -14.018766 nan nan nan -2.216040 3.346578 -38.278107 6.662443 -1.836605 37.012289 5.961193 -1.714813 3.286985 nan nan nan -0.086275 -6.336481 16.353723 4.986387 -4.073162 -0.712922 0.783961 -3.681701 1.800747 -1.799073 11.472121 16.940907 2.350837 12.979617 5.617688 -11.384063 9.495951 0.776893 -59.947799 -9.756628 12.134542 11.409257 -38.873587 -19.043228 -4.087883 -24.058358 -25.026918 8.967781 -16.624569 -0.804438 57.606420 -2.792739 2.824962 -5.659585 37.921016 -7.869647 3.214676 16.244235 -21.468496 
60.337894 1.707153 94.677124 -112.842055 1.425502 92.013782 -1.947473 2.643268 -10.586516 -7.112140 -1.554361 21.071436 1.262985 9.486764 -13.950850 nan nan nan -1.625052 3.511128 -38.569538 6.736193 -2.111509 36.548807 5.908938 -1.738574 3.466606 nan nan nan -0.200724 -6.688329 16.313009 4.964177 -4.379259 -0.646841 0.738370 -3.871976 1.796134 -2.070087 11.388423 16.779673 2.474614 13.351315 5.731806 -11.448752 9.289998 0.894144 -59.804602 -9.996319 12.175751 11.761968 -39.661907 -19.713358 -3.867978 -23.854417 -24.632952 8.790157 -16.846300 -0.779757 57.798999 -3.137364 2.919671 -5.598973 38.043552 -7.738974 3.043493 16.207412 -21.279896 
